<?xml version="1.0" encoding="iso-8859-1"?>
<!-- Generator: Adobe Illustrator 19.0.0, SVG Export Plug-In . SVG Version: 6.00 Build 0)  -->
<svg version="1.1" id="Capa_1" xmlns="http://www.w3.org/2000/svg" xmlns:xlink="http://www.w3.org/1999/xlink" x="0px" y="0px"
	 viewBox="0 0 512.002 512.002" style="enable-background:new 0 0 512.002 512.002;" xml:space="preserve">
<g>
	<path style="fill:#F0F0F0;" d="M18.091,160.912c126.714-53.603,372.286,30.604,478.887,13.097
		c-5.249-25.577-14.47-49.706-26.985-71.716h0.01c16.5,0,29.999-13.499,29.999-30c0-16.5-13.499-30-29.999-30H42.001
		c-16.5,0-30,13.5-30,30c0,16.501,13.5,30,30,30h0.009C31.652,120.508,23.552,140.174,18.091,160.912z"/>
	<path style="fill:#66E2E7;" d="M496.978,174.008c-106.601,17.507-352.173-66.7-478.887-13.097
		C12.813,180.958,10,202.003,10,223.707c0,135.863,110.139,246.001,246.001,246.001S502.002,359.57,502.002,223.707
		C502.002,206.68,500.272,190.059,496.978,174.008L496.978,174.008z M258.332,240.199c28.412-7.586,68.802-1.949,100.074,9.295
		v32.803c16.156-23.739,41.122-25.029,63.195-20.429c0.64,4.639-0.988,78.77-1.018,78.83c-4.009,8.05-42.03,11.875-62.177-19.517
		v33.396c-29.686,16.284-63.696,22.484-96.856,15.435c-4.298-0.913-8.453-1.936-12.46-3.06
		c-83.911-23.522-102.629-91.086-3.148-123.116C249.886,242.565,254.014,241.352,258.332,240.199z"/>
	<path style="fill:#FEC478;" d="M249.09,366.951c31.259-34.94,23.861-116.112-3.148-123.116
		C146.461,275.865,165.179,343.428,249.09,366.951z"/>
	<path style="fill:#FFA655;" d="M245.942,243.835c27.009,7.004,34.406,88.176,3.148,123.116c4.007,1.124,8.162,2.146,12.46,3.06
		c33.16,7.05,67.171,0.85,96.856-15.435V321.18c20.146,31.392,58.168,27.566,62.177,19.517c0.03-0.061,1.658-74.191,1.018-78.83
		c-22.073-4.601-47.039-3.311-63.195,20.429v-32.803c-31.273-11.244-71.662-16.881-100.074-9.295
		C254.014,241.352,249.886,242.565,245.942,243.835z"/>
</g>
<path d="M229.584,287.058h-0.762c-5.522,0-10,4.478-10,10c0,5.522,4.478,10,10,10h0.762c5.523,0,10-4.478,10-10
	C239.584,291.536,235.107,287.058,229.584,287.058z"/>
<path d="M423.642,252.078c-7.404-1.544-14.475-2.326-21.017-2.326c-13.115,0-24.554,3.031-34.219,9.044v-9.303
	c0-4.218-2.648-7.982-6.616-9.41c-23.607-8.487-50.45-13.356-73.649-13.356c-12.024,0-22.922,1.281-32.389,3.81
	c-4.205,1.123-8.257,2.323-12.186,3.581c-0.423,0.104-0.833,0.242-1.236,0.398c-47.87,15.609-74.584,41.088-73.813,71.038
	c0.79,30.677,30.744,57.667,77.475,70.896c0.283,0.092,0.569,0.171,0.857,0.237c4.088,1.138,8.288,2.183,12.622,3.104
	c9.658,2.054,19.593,3.095,29.528,3.095c25.246,0,50.91-6.758,74.217-19.543c3.201-1.756,5.19-5.117,5.19-8.768v-9.024
	c10.255,6.953,22.348,10.798,34.96,10.798c12.895,0,22.678-4.185,26.16-11.178c1.025-2.051,1.025-2.051,1.316-15.956
	c0.146-7.041,0.334-16.471,0.499-26.044c0.675-38.982,0.357-41.291,0.166-42.671C430.93,256.313,427.781,252.94,423.642,252.078z
	 M188.51,305.04c-0.506-19.674,20.525-38.048,57.029-50.522c3.172,2.15,7.006,7.497,9.99,17.368
	c7.361,24.347,4.741,61.958-10.092,83.518c-15.25-4.905-28.246-11.487-38.159-19.419C195.275,326.38,188.784,315.678,188.51,305.04z
	 M410.713,335.472c-1.587,0.441-4.031,0.877-7.347,0.877c-5.477,0-24.295-1.483-36.544-20.57c-2.397-3.736-6.973-5.444-11.23-4.194
	c-4.26,1.249-7.185,5.157-7.185,9.596v27.341c-18.939,9.413-39.359,14.365-59.407,14.365c-7.831,0-15.655-0.761-23.296-2.245
	c15.433-27.506,17.242-67.184,8.97-94.543c-2.086-6.899-4.727-12.77-7.853-17.567c6.39-1.196,13.531-1.804,21.32-1.804
	c18.86,0,40.461,3.585,60.266,9.929v25.64c0,4.389,2.862,8.265,7.057,9.557c4.194,1.294,8.741-0.302,11.21-3.931
	c8.321-12.227,20.081-18.17,35.952-18.17c2.889,0,5.942,0.199,9.132,0.597C411.712,286.245,411.017,322.083,410.713,335.472z"/>
<path d="M373.992,112.292h0.324c5.522,0,10-4.478,10-10s-4.478-10-10-10h-0.324c-5.522,0-10,4.478-10,10
	C363.992,107.815,368.47,112.292,373.992,112.292z"/>
<path d="M506.895,172.828c-0.018-0.146-0.025-0.292-0.05-0.439c-0.072-0.438-0.181-0.861-0.307-1.276
	c-4.482-21.408-11.677-42.193-21.455-61.771c14.603-5.966,24.918-20.325,24.918-37.049c0-22.056-17.943-40-39.999-40H42.001
	c-22.056,0-40,17.944-40,40c0,16.723,10.315,31.081,24.919,37.047c-7.711,15.439-13.822,31.629-18.26,48.282
	c-0.197,0.565-0.345,1.145-0.439,1.738C2.803,180.283,0,201.915,0,223.707c0,68.381,26.629,132.668,74.981,181.021
	c48.352,48.352,112.64,74.98,181.02,74.98s132.668-26.629,181.02-74.98c48.353-48.353,74.981-112.64,74.981-181.021
	C512.002,206.559,510.27,189.51,506.895,172.828z M22.001,72.292c0-11.028,8.972-20,20-20h428.001c11.027,0,19.999,8.972,19.999,20
	s-8.972,20-20.009,20h-65.953c-5.522,0-10,4.478-10,10s4.478,10,10,10h60.045c9.024,16.83,15.941,34.709,20.633,53.187
	c-41.63,3.91-102.334-4.867-166.315-14.125c-97.552-14.115-207.088-29.963-284.835-6.594c4.591-12.965,10.316-25.53,17.136-37.524
	c1.761-3.096,1.737-6.894-0.053-9.972c-1.791-3.078-5.088-4.972-8.649-4.972C30.973,92.292,22.001,83.321,22.001,72.292z
	 M256.001,459.708C125.869,459.708,20,353.839,20,223.707c0-18.746,2.24-37.364,6.596-55.439
	c73.266-28.321,187.713-11.767,288.941,2.881c53.922,7.803,105.576,15.276,146.82,15.276c9.403,0,18.254-0.398,26.478-1.26
	c2.096,12.695,3.166,25.588,3.166,38.542C492.002,353.839,386.133,459.708,256.001,459.708z"/>
<path d="M61.85,275.732c-1.43-5.335-6.915-8.503-12.247-7.071c-5.335,1.43-8.501,6.913-7.071,12.247
	c7.164,26.733,19.118,51.587,35.532,73.87c1.961,2.661,4.99,4.07,8.06,4.07c2.06,0,4.138-0.635,5.923-1.949
	c4.446-3.275,5.396-9.536,2.121-13.982C79.238,322.649,68.365,300.044,61.85,275.732z"/>
<path d="M113.648,365.617c-3.99-3.817-10.318-3.678-14.139,0.314c-3.776,3.948-3.68,10.187,0.188,14.016
	c1.95,1.971,4.525,2.962,7.104,2.962c2.485,0,4.974-0.921,6.911-2.773c3.991-3.817,4.132-10.147,0.314-14.139
	C113.926,365.888,113.756,365.719,113.648,365.617z"/>
<g>
</g>
<g>
</g>
<g>
</g>
<g>
</g>
<g>
</g>
<g>
</g>
<g>
</g>
<g>
</g>
<g>
</g>
<g>
</g>
<g>
</g>
<g>
</g>
<g>
</g>
<g>
</g>
<g>
</g>
</svg>
